PathFileType	4	(X/Y/Z)	C:/Users/opensim2020/Desktop/walking_exp_matlab/subject03_walking08_straight_01.trc																																																																																																																																																							
DataRate	CameraRate	NumFrames	NumMarkers	Units	OrigDataRate	OrigDataStartFrame	OrigNumFrames																																																																																																																																																			
100	100	6	51	mm	100	595	451																																																																																																																																																			
Frame#	Time	LFHD			RFHD			LBHD			RBHD			C7			T10			CLAV			STRN			RBAK			LSHO			LUPA			LELB			LFRM			LWRA			LWRB			LFIN			RSHO			RUPA			RELB			RFRM			RWRA			RWRB			RFIN			LASI			RASI			LPSI			RPSI			LTHI			LKNE			LTIB			LANK			LHEE			LTOE			RTHI			RKNE			RTIB			RANK			RHEE			RTOE			*39			*40			*41			*42			*43			*44			*45			*46			*47			*48			*49			*50		
		X1	Y1	Z1	X2	Y2	Z2	X3	Y3	Z3	X4	Y4	Z4	X5	Y5	Z5	X6	Y6	Z6	X7	Y7	Z7	X8	Y8	Z8	X9	Y9	Z9	X10	Y10	Z10	X11	Y11	Z11	X12	Y12	Z12	X13	Y13	Z13	X14	Y14	Z14	X15	Y15	Z15	X16	Y16	Z16	X17	Y17	Z17	X18	Y18	Z18	X19	Y19	Z19	X20	Y20	Z20	X21	Y21	Z21	X22	Y22	Z22	X23	Y23	Z23	X24	Y24	Z24	X25	Y25	Z25	X26	Y26	Z26	X27	Y27	Z27	X28	Y28	Z28	X29	Y29	Z29	X30	Y30	Z30	X31	Y31	Z31	X32	Y32	Z32	X33	Y33	Z33	X34	Y34	Z34	X35	Y35	Z35	X36	Y36	Z36	X37	Y37	Z37	X38	Y38	Z38	X39	Y39	Z39	X40	Y40	Z40	X41	Y41	Z41	X42	Y42	Z42	X43	Y43	Z43	X44	Y44	Z44	X45	Y45	Z45	X46	Y46	Z46	X47	Y47	Z47	X48	Y48	Z48	X49	Y49	Z49	X50	Y50	Z50	X51	Y51	Z51
																																																																																																																																																										
113	1.12	-766.05524	1623.93713	-1095.13074	-781.57666	1633.96033	-962.94177	-891.17767	1574.02466	-1103.48584	-902.54462	1583.71423	-972.78735	-922.63324	1420.50024	-1032.53601	-963.0813	1110.26038	-1028.11389	-802.07587	1342.38269	-1031.63	-761.4281	1176.07483	-1034.60876	-976.16626	1248.47791	-931.54333	-849.02533	1376.87097	-1188.06128	-864.77277	1178.03259	-1255.70264	-859.01501	1054.91663	-1266.05676	-829.56055	927.84515	-1264.29712	-806.1842	810.71515	-1232.61584	-831.39746	814.42529	-1282.17773	-813.44922	731.77722	-1270.87842	-842.68158	1370.01172	-871.68036	-833.27869	1146.51697	-800.95593	-815.57898	1034.57568	-788.961	-806.28497	897.86768	-782.62469	-786.94836	798.29529	-816.20251	-811.22925	798.17194	-767.7666	-799.84509	723.06604	-778.94806	-804.03101	941.07904	-1145.57117	-804.1394	937.51093	-908.67987	-965.47955	971.7583	-1096.74854	-962.95599	975.44513	-946.85602	-853.81714	641.3075	-1181.64197	-836.55164	463.98828	-1139.00269	-866.29889	273.0827	-1141.44128	-857.62134	63.5484	-1099.15015	-893.08783	29.14959	-1061.58423	-702.02008	29.49163	-1088.27686	-862.44397	642.11188	-853.99451	-852.51343	461.43069	-871.91254	-986.24847	320.41974	-865.00336	-1129.73694	156.61429	-905.49438	-1182.28662	162.78493	-956.8833	-1054.61487	34.79429	-937.65399	NaN	NaN	NaN	NaN	NaN	NaN	NaN	NaN	NaN	NaN	NaN	NaN	NaN	NaN	NaN	NaN	NaN	NaN	NaN	NaN	NaN	NaN	NaN	NaN	NaN	NaN	NaN	NaN	NaN	NaN	NaN	NaN	NaN	NaN	NaN	NaN
114	1.13	-760.8324	1623.72974	-1096.14929	-776.47229	1633.92969	-963.98682	-885.84393	1573.58411	-1104.62903	-897.37915	1583.41833	-973.97205	-917.27722	1420.31238	-1033.88696	-957.8219	1110.15149	-1029.35425	-796.68311	1342.18384	-1032.39392	-756.06458	1175.86914	-1035.39038	-971.2912	1248.38062	-933.22375	-842.80402	1376.71436	-1188.9989	-857.30212	1178.01965	-1257.22461	-850.60712	1054.99084	-1267.72693	-820.27747	928.08905	-1265.44934	-796.35846	811.27777	-1233.71863	-820.88379	814.76971	-1283.55957	-802.22925	732.35059	-1272.0603	-838.05811	1369.80115	-872.55878	-830.02368	1146.41663	-801.37323	-812.672	1034.40503	-789.13751	-804.11029	897.65527	-782.43927	-785.27905	797.89215	-815.84448	-809.57263	798.10901	-767.29175	-798.32764	722.96381	-778.16803	-798.57446	941.04333	-1146.62781	-799.6131	937.24371	-909.59039	-960.30109	971.58221	-1097.91541	-958.17065	974.84326	-948.06342	-849.51257	641.27545	-1182.34534	-834.0838	464.26007	-1139.09595	-864.98529	273.06638	-1141.90686	-857.5802	63.5232	-1099.06238	-893.20807	29.2755	-1061.86108	-701.91718	29.42156	-1088.23486	-854.38892	641.81805	-854.29657	-840.23224	461.01257	-872.74677	-974.80219	321.55038	-865.26489	-1120.60718	160.23607	-905.44324	-1173.15405	166.13188	-957.49121	-1046.07666	37.55227	-934.75696	NaN	NaN	NaN	NaN	NaN	NaN	NaN	NaN	NaN	NaN	NaN	NaN	NaN	NaN	NaN	NaN	NaN	NaN	NaN	NaN	NaN	NaN	NaN	NaN	NaN	NaN	NaN	NaN	NaN	NaN	NaN	NaN	NaN	NaN	NaN	NaN
115	1.14	-755.61768	1623.57654	-1097.2312	-771.3736	1633.96277	-964.92865	-880.5213	1573.16394	-1105.70654	-892.19507	1583.19788	-975.07825	-912.04773	1420.32251	-1035.21045	-952.65643	1110.08472	-1030.52307	-791.39459	1342.00769	-1033.07556	-751.08252	1175.6001	-1035.86975	-966.62408	1248.37097	-934.76349	-836.57129	1376.48071	-1189.79932	-849.75598	1178.01196	-1258.62866	-842.23218	1055.02332	-1269.37134	-811.00177	928.41998	-1266.68372	-786.70142	811.81689	-1234.51794	-810.31909	815.12592	-1284.8092	-791.1759	732.9292	-1273.26685	-833.47363	1369.58557	-873.50543	-826.88776	1146.34106	-801.4397	-809.87451	1034.24512	-789.20905	-801.80695	897.47559	-782.29712	-783.29834	797.58545	-815.42633	-807.65619	798.0022	-766.97583	-796.51569	722.90686	-777.53162	-793.30664	940.86255	-1147.42017	-795.06598	936.96088	-910.39032	-955.14862	971.39099	-1099.12134	-953.43451	974.19843	-949.29291	-845.49762	641.3114	-1183.27698	-831.73169	463.87402	-1140.16064	-863.66919	273.15515	-1142.32129	-857.50989	63.60001	-1099.04016	-893.23248	29.34199	-1062.08154	-701.82501	29.32095	-1088.23059	-846.34888	641.69116	-855.19037	-828.20959	461.18155	-873.19464	-963.50275	322.92297	-866.01996	-1110.80933	162.90764	-905.80365	-1163.19751	168.27325	-958.46124	-1035.98975	40.43905	-931.43713	NaN	NaN	NaN	NaN	NaN	NaN	NaN	NaN	NaN	NaN	NaN	NaN	NaN	NaN	NaN	NaN	NaN	NaN	NaN	NaN	NaN	NaN	NaN	NaN	NaN	NaN	NaN	NaN	NaN	NaN	NaN	NaN	NaN	NaN	NaN	NaN
116	1.15	-750.40619	1623.49121	-1098.14685	-766.375	1634.14307	-966.05426	-875.21301	1572.79358	-1106.68738	-887.05725	1583.07471	-976.0603	-906.83832	1420.24243	-1036.3833	-947.64001	1110.06409	-1031.6687	-786.29248	1341.87769	-1033.61475	-745.95483	1175.44885	-1036.37976	-962.05627	1248.43445	-936.19043	-830.37299	1376.21814	-1190.46924	-842.09247	1177.97632	-1259.9812	-833.76135	1055.08044	-1271.02075	-801.62476	928.66742	-1267.72351	-777.22559	812.31262	-1235.24304	-799.7262	815.48291	-1286.03784	-779.91254	733.54401	-1274.38318	-829.00073	1369.4126	-874.28394	-823.81897	1146.28076	-801.71985	-807.20026	1034.12061	-789.15613	-799.4256	897.31427	-782.12421	-781.0838	797.36481	-815.00006	-805.69427	797.93274	-766.67432	-794.32397	722.90625	-776.88275	-788.00952	940.78119	-1148.30396	-790.62982	936.73315	-911.08984	-949.96582	971.19232	-1100.26196	-948.80414	973.62177	-950.47668	-841.88208	641.28613	-1183.9408	-829.90369	463.54419	-1140.39404	-862.49725	273.22125	-1142.70776	-857.5885	63.54954	-1099.01575	-893.29547	29.37001	-1062.14685	-701.81146	29.32055	-1088.22791	-838.21436	641.66553	-855.9458	-816.36017	461.62436	-873.89178	-952.2525	324.47144	-866.95959	-1100.35303	165.44417	-906.16461	-1152.57751	169.48383	-959.49738	-1024.24072	43.32809	-927.56616	NaN	NaN	NaN	NaN	NaN	NaN	NaN	NaN	NaN	NaN	NaN	NaN	NaN	NaN	NaN	NaN	NaN	NaN	NaN	NaN	NaN	NaN	NaN	NaN	NaN	NaN	NaN	NaN	NaN	NaN	NaN	NaN	NaN	NaN	NaN	NaN
117	1.16	-745.28082	1623.38074	-1098.90137	-761.32013	1634.35352	-966.95013	-869.93964	1572.51611	-1107.5957	-881.93195	1583.06653	-977.00726	-901.64819	1420.33289	-1037.5282	-942.64868	1110.12244	-1032.85999	-781.24866	1341.84277	-1034.10327	-740.99774	1175.37952	-1036.84619	-957.57312	1248.53137	-937.57684	-824.26141	1375.97351	-1191.08875	-834.26257	1177.95703	-1261.2323	-825.22546	1055.11328	-1272.46606	-792.13159	928.96558	-1268.81128	-767.70367	812.75928	-1235.91174	-789.07959	815.85779	-1287.16821	-768.63263	734.19989	-1275.42261	-824.70062	1369.2998	-874.92645	-820.74207	1146.23511	-801.98645	-804.54944	1034.05981	-789.02008	-797.02686	897.25482	-781.87048	-778.46448	797.22211	-814.55353	-803.46143	797.86194	-766.48743	-791.86877	722.94238	-776.40533	-782.72882	940.69275	-1149.20276	-786.16467	936.68256	-911.73712	-944.98987	970.95221	-1101.38831	-944.12213	973.21503	-951.65259	-838.50934	641.23181	-1184.51184	-828.27057	463.1395	-1140.39734	-861.375	273.32098	-1142.99438	-857.31653	63.79539	-1099.05139	-893.32623	29.45607	-1062.18665	-701.77454	29.25615	-1088.22705	-830.33771	641.96326	-856.85175	-804.79895	462.4884	-874.64636	-940.85223	325.98538	-867.79608	-1088.91003	166.99136	-906.73059	-1141.09326	169.5937	-960.69409	-1011.70221	45.69616	-924.19745	NaN	NaN	NaN	NaN	NaN	NaN	NaN	NaN	NaN	NaN	NaN	NaN	NaN	NaN	NaN	NaN	NaN	NaN	NaN	NaN	NaN	NaN	NaN	NaN	NaN	NaN	NaN	NaN	NaN	NaN	NaN	NaN	NaN	NaN	NaN	NaN
118	1.17	-740.05609	1623.31714	-1099.79944	-756.34985	1634.58203	-967.74164	-864.69281	1572.28723	-1108.41199	-876.83795	1583.15039	-977.86768	-896.51544	1420.49963	-1038.5437	-937.75079	1110.27881	-1034.02368	-776.28601	1341.91638	-1034.49768	-736.17456	1175.39014	-1037.00159	-953.1748	1248.65601	-938.89374	-818.22504	1375.84741	-1191.67078	-826.40271	1177.97241	-1262.31934	-816.47382	1055.3363	-1274.05872	-782.63068	929.37982	-1269.88989	-757.81342	813.46149	-1236.69373	-778.34955	816.34631	-1288.34338	-757.31708	734.95551	-1276.50061	-820.52753	1369.25	-875.46277	-817.71222	1146.3064	-802.23389	-801.9245	1034.11243	-788.88824	-794.42957	897.27032	-781.72662	-775.61108	797.26794	-814.16504	-801.08112	797.90601	-766.38293	-789.18958	723.06195	-776.04352	-777.70099	940.63611	-1149.99207	-781.64087	936.73993	-912.36176	-940.01196	970.9032	-1102.39502	-939.42078	973.0271	-952.79565	-835.21698	641.17609	-1184.91235	-825.46173	463.53058	-1141.23035	-860.21149	273.43338	-1143.20703	-857.2334	63.85712	-1099.0282	-893.2901	29.46551	-1062.1571	-701.78204	29.20235	-1088.203	-822.55188	642.50073	-857.80933	-793.4505	463.65027	-875.31903	-929.26129	327.35367	-868.65717	-1076.84277	167.86375	-907.3255	-1128.99939	168.9498	-961.83508	-998.02728	47.69509	-920.91608	NaN	NaN	NaN	NaN	NaN	NaN	NaN	NaN	NaN	NaN	NaN	NaN	NaN	NaN	NaN	NaN	NaN	NaN	NaN	NaN	NaN	NaN	NaN	NaN	NaN	NaN	NaN	NaN	NaN	NaN	NaN	NaN	NaN	NaN	NaN	NaN
